M48
;DRILL file {KiCad 4.0.4-stable} date 01/05/17 11:30:27
;FORMAT={-:-/ absolute / metric / decimal}
FMAT,2
METRIC,TZ
T1C0.400
T2C0.500
T3C3.200
%
G90
G05
M71
T1
X71.Y-57.95
X71.Y-58.45
X71.Y-58.975
X71.Y-59.5
X71.Y-60.
X71.Y-60.5
X71.Y-95.95
X71.Y-96.45
X71.Y-96.975
X71.Y-97.5
X71.Y-98.
X71.Y-98.5
X71.1Y-33.5
X71.1Y-34.
X71.1Y-34.5
X71.1Y-35.
X71.1Y-71.5
X71.1Y-72.
X71.1Y-72.5
X71.1Y-73.
X71.5Y-57.95
X71.5Y-58.45
X71.5Y-59.
X71.5Y-59.475
X71.5Y-60.
X71.5Y-60.5
X71.5Y-95.95
X71.5Y-96.45
X71.5Y-97.
X71.5Y-97.475
X71.5Y-98.
X71.5Y-98.5
X71.6Y-33.5
X71.6Y-34.
X71.6Y-34.5
X71.6Y-35.
X71.6Y-71.5
X71.6Y-72.
X71.6Y-72.5
X71.6Y-73.
X72.Y-57.95
X72.Y-58.45
X72.Y-58.95
X72.Y-59.475
X72.Y-60.
X72.Y-60.5
X72.Y-95.95
X72.Y-96.45
X72.Y-96.95
X72.Y-97.475
X72.Y-98.
X72.Y-98.5
X73.1Y-38.7
X73.1Y-38.7
X73.1Y-76.7
X73.1Y-76.7
X76.35Y-40.125
X76.35Y-78.125
X80.Y-38.
X80.Y-39.
X80.Y-40.
X80.Y-76.
X80.Y-77.
X80.Y-78.
X81.Y-38.
X81.Y-39.
X81.Y-76.
X81.Y-77.
X81.8Y-55.
X81.8Y-93.
X82.Y-38.
X82.Y-39.
X82.Y-76.
X82.Y-77.
X82.5Y-63.5
X82.5Y-64.
X82.5Y-64.55
X82.5Y-65.125
X82.5Y-65.7
X82.5Y-101.5
X82.5Y-102.
X82.5Y-102.55
X82.5Y-103.125
X82.5Y-103.7
X83.Y-63.5
X83.Y-101.5
X83.025Y-64.
X83.025Y-64.55
X83.025Y-65.125
X83.025Y-102.
X83.025Y-102.55
X83.025Y-103.125
X83.05Y-65.7
X83.05Y-103.7
X83.55Y-56.95
X83.55Y-94.95
X83.66Y-57.928
X83.66Y-95.928
X84.25Y-35.5
X84.25Y-36.
X84.25Y-36.5
X84.25Y-73.5
X84.25Y-74.
X84.25Y-74.5
X84.75Y-35.5
X84.75Y-36.
X84.75Y-36.5
X84.75Y-73.5
X84.75Y-74.
X84.75Y-74.5
X84.775Y-61.8
X84.775Y-99.8
X85.25Y-35.5
X85.25Y-36.
X85.25Y-36.5
X85.25Y-73.5
X85.25Y-74.
X85.25Y-74.5
X85.692Y-61.23
X85.692Y-99.23
X85.75Y-35.5
X85.75Y-36.
X85.75Y-36.5
X85.75Y-73.5
X85.75Y-74.
X85.75Y-74.5
X87.2Y-58.729
X87.2Y-96.729
X91.Y-57.95
X91.Y-58.45
X91.Y-58.975
X91.Y-59.5
X91.Y-60.
X91.Y-60.5
X91.Y-95.95
X91.Y-96.45
X91.Y-96.975
X91.Y-97.5
X91.Y-98.
X91.Y-98.5
X91.1Y-33.5
X91.1Y-34.
X91.1Y-34.5
X91.1Y-35.
X91.1Y-71.5
X91.1Y-72.
X91.1Y-72.5
X91.1Y-73.
X91.5Y-57.95
X91.5Y-58.45
X91.5Y-59.
X91.5Y-59.475
X91.5Y-60.
X91.5Y-60.5
X91.5Y-95.95
X91.5Y-96.45
X91.5Y-97.
X91.5Y-97.475
X91.5Y-98.
X91.5Y-98.5
X91.6Y-33.5
X91.6Y-34.
X91.6Y-34.5
X91.6Y-35.
X91.6Y-71.5
X91.6Y-72.
X91.6Y-72.5
X91.6Y-73.
X92.Y-57.95
X92.Y-58.45
X92.Y-58.95
X92.Y-59.475
X92.Y-60.
X92.Y-60.5
X92.Y-95.95
X92.Y-96.45
X92.Y-96.95
X92.Y-97.475
X92.Y-98.
X92.Y-98.5
X93.1Y-38.7
X93.1Y-38.7
X93.1Y-76.7
X93.1Y-76.7
X96.35Y-40.125
X96.35Y-78.125
X100.Y-38.
X100.Y-39.
X100.Y-40.
X100.Y-76.
X100.Y-77.
X100.Y-78.
X101.Y-38.
X101.Y-39.
X101.Y-76.
X101.Y-77.
X101.8Y-55.
X101.8Y-93.
X102.Y-38.
X102.Y-39.
X102.Y-76.
X102.Y-77.
X102.5Y-63.5
X102.5Y-64.
X102.5Y-64.55
X102.5Y-65.125
X102.5Y-65.7
X102.5Y-101.5
X102.5Y-102.
X102.5Y-102.55
X102.5Y-103.125
X102.5Y-103.7
X103.Y-63.5
X103.Y-101.5
X103.025Y-64.
X103.025Y-64.55
X103.025Y-65.125
X103.025Y-102.
X103.025Y-102.55
X103.025Y-103.125
X103.05Y-65.7
X103.05Y-103.7
X103.55Y-56.95
X103.55Y-94.95
X103.66Y-57.928
X103.66Y-95.928
X104.25Y-35.5
X104.25Y-36.
X104.25Y-36.5
X104.25Y-73.5
X104.25Y-74.
X104.25Y-74.5
X104.75Y-35.5
X104.75Y-36.
X104.75Y-36.5
X104.75Y-73.5
X104.75Y-74.
X104.75Y-74.5
X104.775Y-61.8
X104.775Y-99.8
X105.25Y-35.5
X105.25Y-36.
X105.25Y-36.5
X105.25Y-73.5
X105.25Y-74.
X105.25Y-74.5
X105.692Y-61.23
X105.692Y-99.23
X105.75Y-35.5
X105.75Y-36.
X105.75Y-36.5
X105.75Y-73.5
X105.75Y-74.
X105.75Y-74.5
X107.2Y-58.729
X107.2Y-96.729
X111.Y-57.95
X111.Y-58.45
X111.Y-58.975
X111.Y-59.5
X111.Y-60.
X111.Y-60.5
X111.Y-95.95
X111.Y-96.45
X111.Y-96.975
X111.Y-97.5
X111.Y-98.
X111.Y-98.5
X111.1Y-33.5
X111.1Y-34.
X111.1Y-34.5
X111.1Y-35.
X111.1Y-71.5
X111.1Y-72.
X111.1Y-72.5
X111.1Y-73.
X111.5Y-57.95
X111.5Y-58.45
X111.5Y-59.
X111.5Y-59.475
X111.5Y-60.
X111.5Y-60.5
X111.5Y-95.95
X111.5Y-96.45
X111.5Y-97.
X111.5Y-97.475
X111.5Y-98.
X111.5Y-98.5
X111.6Y-33.5
X111.6Y-34.
X111.6Y-34.5
X111.6Y-35.
X111.6Y-71.5
X111.6Y-72.
X111.6Y-72.5
X111.6Y-73.
X112.Y-57.95
X112.Y-58.45
X112.Y-58.95
X112.Y-59.475
X112.Y-60.
X112.Y-60.5
X112.Y-95.95
X112.Y-96.45
X112.Y-96.95
X112.Y-97.475
X112.Y-98.
X112.Y-98.5
X113.1Y-38.7
X113.1Y-38.7
X113.1Y-76.7
X113.1Y-76.7
X116.35Y-40.125
X116.35Y-78.125
X120.Y-38.
X120.Y-39.
X120.Y-40.
X120.Y-76.
X120.Y-77.
X120.Y-78.
X121.Y-38.
X121.Y-39.
X121.Y-76.
X121.Y-77.
X121.8Y-55.
X121.8Y-93.
X122.Y-38.
X122.Y-39.
X122.Y-76.
X122.Y-77.
X122.5Y-63.5
X122.5Y-64.
X122.5Y-64.55
X122.5Y-65.125
X122.5Y-65.7
X122.5Y-101.5
X122.5Y-102.
X122.5Y-102.55
X122.5Y-103.125
X122.5Y-103.7
X123.Y-63.5
X123.Y-101.5
X123.025Y-64.
X123.025Y-64.55
X123.025Y-65.125
X123.025Y-102.
X123.025Y-102.55
X123.025Y-103.125
X123.05Y-65.7
X123.05Y-103.7
X123.55Y-56.95
X123.55Y-94.95
X123.66Y-57.928
X123.66Y-95.928
X124.25Y-35.5
X124.25Y-36.
X124.25Y-36.5
X124.25Y-73.5
X124.25Y-74.
X124.25Y-74.5
X124.75Y-35.5
X124.75Y-36.
X124.75Y-36.5
X124.75Y-73.5
X124.75Y-74.
X124.75Y-74.5
X124.775Y-61.8
X124.775Y-99.8
X125.25Y-35.5
X125.25Y-36.
X125.25Y-36.5
X125.25Y-73.5
X125.25Y-74.
X125.25Y-74.5
X125.692Y-61.23
X125.692Y-99.23
X125.75Y-35.5
X125.75Y-36.
X125.75Y-36.5
X125.75Y-73.5
X125.75Y-74.
X125.75Y-74.5
X127.2Y-58.729
X127.2Y-96.729
X131.Y-57.95
X131.Y-58.45
X131.Y-58.975
X131.Y-59.5
X131.Y-60.
X131.Y-60.5
X131.Y-95.95
X131.Y-96.45
X131.Y-96.975
X131.Y-97.5
X131.Y-98.
X131.Y-98.5
X131.1Y-33.5
X131.1Y-34.
X131.1Y-34.5
X131.1Y-35.
X131.1Y-71.5
X131.1Y-72.
X131.1Y-72.5
X131.1Y-73.
X131.5Y-57.95
X131.5Y-58.45
X131.5Y-59.
X131.5Y-59.475
X131.5Y-60.
X131.5Y-60.5
X131.5Y-95.95
X131.5Y-96.45
X131.5Y-97.
X131.5Y-97.475
X131.5Y-98.
X131.5Y-98.5
X131.6Y-33.5
X131.6Y-34.
X131.6Y-34.5
X131.6Y-35.
X131.6Y-71.5
X131.6Y-72.
X131.6Y-72.5
X131.6Y-73.
X132.Y-57.95
X132.Y-58.45
X132.Y-58.95
X132.Y-59.475
X132.Y-60.
X132.Y-60.5
X132.Y-95.95
X132.Y-96.45
X132.Y-96.95
X132.Y-97.475
X132.Y-98.
X132.Y-98.5
X133.1Y-38.7
X133.1Y-38.7
X133.1Y-76.7
X133.1Y-76.7
X136.35Y-40.125
X136.35Y-78.125
X140.Y-38.
X140.Y-39.
X140.Y-40.
X140.Y-76.
X140.Y-77.
X140.Y-78.
X141.Y-38.
X141.Y-39.
X141.Y-76.
X141.Y-77.
X141.8Y-55.
X141.8Y-93.
X142.Y-38.
X142.Y-39.
X142.Y-76.
X142.Y-77.
X142.5Y-63.5
X142.5Y-64.
X142.5Y-64.55
X142.5Y-65.125
X142.5Y-65.7
X142.5Y-101.5
X142.5Y-102.
X142.5Y-102.55
X142.5Y-103.125
X142.5Y-103.7
X143.Y-63.5
X143.Y-101.5
X143.025Y-64.
X143.025Y-64.55
X143.025Y-65.125
X143.025Y-102.
X143.025Y-102.55
X143.025Y-103.125
X143.05Y-65.7
X143.05Y-103.7
X143.55Y-56.95
X143.55Y-94.95
X143.66Y-57.928
X143.66Y-95.928
X144.25Y-35.5
X144.25Y-36.
X144.25Y-36.5
X144.25Y-73.5
X144.25Y-74.
X144.25Y-74.5
X144.75Y-35.5
X144.75Y-36.
X144.75Y-36.5
X144.75Y-73.5
X144.75Y-74.
X144.75Y-74.5
X144.775Y-61.8
X144.775Y-99.8
X145.25Y-35.5
X145.25Y-36.
X145.25Y-36.5
X145.25Y-73.5
X145.25Y-74.
X145.25Y-74.5
X145.692Y-61.23
X145.692Y-99.23
X145.75Y-35.5
X145.75Y-36.
X145.75Y-36.5
X145.75Y-73.5
X145.75Y-74.
X145.75Y-74.5
X147.2Y-58.729
X147.2Y-96.729
X151.Y-57.95
X151.Y-58.45
X151.Y-58.975
X151.Y-59.5
X151.Y-60.
X151.Y-60.5
X151.Y-95.95
X151.Y-96.45
X151.Y-96.975
X151.Y-97.5
X151.Y-98.
X151.Y-98.5
X151.1Y-33.5
X151.1Y-34.
X151.1Y-34.5
X151.1Y-35.
X151.1Y-71.5
X151.1Y-72.
X151.1Y-72.5
X151.1Y-73.
X151.5Y-57.95
X151.5Y-58.45
X151.5Y-59.
X151.5Y-59.475
X151.5Y-60.
X151.5Y-60.5
X151.5Y-95.95
X151.5Y-96.45
X151.5Y-97.
X151.5Y-97.475
X151.5Y-98.
X151.5Y-98.5
X151.6Y-33.5
X151.6Y-34.
X151.6Y-34.5
X151.6Y-35.
X151.6Y-71.5
X151.6Y-72.
X151.6Y-72.5
X151.6Y-73.
X152.Y-57.95
X152.Y-58.45
X152.Y-58.95
X152.Y-59.475
X152.Y-60.
X152.Y-60.5
X152.Y-95.95
X152.Y-96.45
X152.Y-96.95
X152.Y-97.475
X152.Y-98.
X152.Y-98.5
X153.1Y-38.7
X153.1Y-38.7
X153.1Y-76.7
X153.1Y-76.7
X156.35Y-40.125
X156.35Y-78.125
X160.Y-38.
X160.Y-39.
X160.Y-40.
X160.Y-76.
X160.Y-77.
X160.Y-78.
X161.Y-38.
X161.Y-39.
X161.Y-76.
X161.Y-77.
X161.8Y-55.
X161.8Y-93.
X162.Y-38.
X162.Y-39.
X162.Y-76.
X162.Y-77.
X162.5Y-63.5
X162.5Y-64.
X162.5Y-64.55
X162.5Y-65.125
X162.5Y-65.7
X162.5Y-101.5
X162.5Y-102.
X162.5Y-102.55
X162.5Y-103.125
X162.5Y-103.7
X163.Y-63.5
X163.Y-101.5
X163.025Y-64.
X163.025Y-64.55
X163.025Y-65.125
X163.025Y-102.
X163.025Y-102.55
X163.025Y-103.125
X163.05Y-65.7
X163.05Y-103.7
X163.55Y-56.95
X163.55Y-94.95
X163.66Y-57.928
X163.66Y-95.928
X164.25Y-35.5
X164.25Y-36.
X164.25Y-36.5
X164.25Y-73.5
X164.25Y-74.
X164.25Y-74.5
X164.75Y-35.5
X164.75Y-36.
X164.75Y-36.5
X164.75Y-73.5
X164.75Y-74.
X164.75Y-74.5
X164.775Y-61.8
X164.775Y-99.8
X165.25Y-35.5
X165.25Y-36.
X165.25Y-36.5
X165.25Y-73.5
X165.25Y-74.
X165.25Y-74.5
X165.692Y-61.23
X165.692Y-99.23
X165.75Y-35.5
X165.75Y-36.
X165.75Y-36.5
X165.75Y-73.5
X165.75Y-74.
X165.75Y-74.5
X167.2Y-58.729
X167.2Y-96.729
T2
X72.714Y-25.
X72.714Y-111.
X73.4Y-23.4
X73.4Y-26.6
X73.4Y-109.4
X73.4Y-112.6
X75.Y-22.714
X75.Y-27.286
X75.Y-108.714
X75.Y-113.286
X76.6Y-23.4
X76.6Y-26.6
X76.6Y-109.4
X76.6Y-112.6
X77.286Y-25.
X77.286Y-111.
X87.714Y-25.
X87.714Y-111.
X88.4Y-23.4
X88.4Y-26.6
X88.4Y-109.4
X88.4Y-112.6
X90.Y-22.714
X90.Y-27.286
X90.Y-108.714
X90.Y-113.286
X91.6Y-23.4
X91.6Y-26.6
X91.6Y-109.4
X91.6Y-112.6
X92.286Y-25.
X92.286Y-111.
X127.714Y-25.
X127.714Y-111.
X128.4Y-23.4
X128.4Y-26.6
X128.4Y-109.4
X128.4Y-112.6
X130.Y-22.714
X130.Y-27.286
X130.Y-108.714
X130.Y-113.286
X131.6Y-23.4
X131.6Y-26.6
X131.6Y-109.4
X131.6Y-112.6
X132.286Y-25.
X132.286Y-111.
X162.714Y-25.
X162.714Y-111.
X163.4Y-23.4
X163.4Y-26.6
X163.4Y-109.4
X163.4Y-112.6
X165.Y-22.714
X165.Y-27.286
X165.Y-108.714
X165.Y-113.286
X166.6Y-23.4
X166.6Y-26.6
X166.6Y-109.4
X166.6Y-112.6
X167.286Y-25.
X167.286Y-111.
T3
X75.Y-25.
X75.Y-111.
X90.Y-25.
X90.Y-111.
X130.Y-25.
X130.Y-111.
X165.Y-25.
X165.Y-111.
T0
M30
