G04 #@! TF.FileFunction,Profile,NP*
%FSLAX46Y46*%
G04 Gerber Fmt 4.6, Leading zero omitted, Abs format (unit mm)*
G04 Created by KiCad (PCBNEW 4.0.4-stable) date 01/10/17 11:03:05*
%MOMM*%
%LPD*%
G01*
G04 APERTURE LIST*
%ADD10C,0.100000*%
%ADD11C,0.800000*%
G04 APERTURE END LIST*
D10*
D11*
X70000000Y-106000000D02*
X70000000Y-116000000D01*
X170000000Y-106000000D02*
X170000000Y-116000000D01*
X170000000Y-116000000D02*
X70000000Y-116000000D01*
X170000000Y-20000000D02*
X70000000Y-20000000D01*
X170000000Y-20000000D02*
X170000000Y-30000000D01*
X70000000Y-20000000D02*
X70000000Y-30000000D01*
X170000000Y-106000000D02*
X170000000Y-101000000D01*
X170000000Y-96200000D02*
X170000000Y-77800000D01*
X156400000Y-106000000D02*
X163600000Y-106000000D01*
X168400000Y-106000000D02*
X170000000Y-106000000D01*
X150000000Y-106000000D02*
X151600000Y-106000000D01*
X170000000Y-58200000D02*
X170000000Y-39800000D01*
X170000000Y-68000000D02*
X170000000Y-63000000D01*
X150000000Y-68000000D02*
X151600000Y-68000000D01*
X170000000Y-68000000D02*
X170000000Y-73000000D01*
X156400000Y-68000000D02*
X163600000Y-68000000D01*
X168400000Y-68000000D02*
X170000000Y-68000000D01*
X170000000Y-30000000D02*
X170000000Y-35000000D01*
X156400000Y-30000000D02*
X163600000Y-30000000D01*
X168400000Y-30000000D02*
X170000000Y-30000000D01*
X150000000Y-30000000D02*
X151600000Y-30000000D01*
X150000000Y-106000000D02*
X150000000Y-101000000D01*
X150000000Y-96200000D02*
X150000000Y-77800000D01*
X136400000Y-106000000D02*
X143600000Y-106000000D01*
X148400000Y-106000000D02*
X150000000Y-106000000D01*
X130000000Y-106000000D02*
X131600000Y-106000000D01*
X150000000Y-58200000D02*
X150000000Y-39800000D01*
X150000000Y-68000000D02*
X150000000Y-63000000D01*
X130000000Y-68000000D02*
X131600000Y-68000000D01*
X150000000Y-68000000D02*
X150000000Y-73000000D01*
X136400000Y-68000000D02*
X143600000Y-68000000D01*
X148400000Y-68000000D02*
X150000000Y-68000000D01*
X150000000Y-30000000D02*
X150000000Y-35000000D01*
X136400000Y-30000000D02*
X143600000Y-30000000D01*
X148400000Y-30000000D02*
X150000000Y-30000000D01*
X130000000Y-30000000D02*
X131600000Y-30000000D01*
X130000000Y-106000000D02*
X130000000Y-101000000D01*
X130000000Y-96200000D02*
X130000000Y-77800000D01*
X116400000Y-106000000D02*
X123600000Y-106000000D01*
X128400000Y-106000000D02*
X130000000Y-106000000D01*
X110000000Y-106000000D02*
X111600000Y-106000000D01*
X130000000Y-58200000D02*
X130000000Y-39800000D01*
X130000000Y-68000000D02*
X130000000Y-63000000D01*
X110000000Y-68000000D02*
X111600000Y-68000000D01*
X130000000Y-68000000D02*
X130000000Y-73000000D01*
X116400000Y-68000000D02*
X123600000Y-68000000D01*
X128400000Y-68000000D02*
X130000000Y-68000000D01*
X130000000Y-30000000D02*
X130000000Y-35000000D01*
X116400000Y-30000000D02*
X123600000Y-30000000D01*
X128400000Y-30000000D02*
X130000000Y-30000000D01*
X110000000Y-30000000D02*
X111600000Y-30000000D01*
X110000000Y-30000000D02*
X110000000Y-35000000D01*
X108400000Y-30000000D02*
X110000000Y-30000000D01*
X110000000Y-58200000D02*
X110000000Y-39800000D01*
X90000000Y-30000000D02*
X91600000Y-30000000D01*
X96400000Y-30000000D02*
X103600000Y-30000000D01*
X96400000Y-106000000D02*
X103600000Y-106000000D01*
X108400000Y-106000000D02*
X110000000Y-106000000D01*
X110000000Y-106000000D02*
X110000000Y-101000000D01*
X90000000Y-106000000D02*
X91600000Y-106000000D01*
X110000000Y-96200000D02*
X110000000Y-77800000D01*
X110000000Y-68000000D02*
X110000000Y-73000000D01*
X90000000Y-68000000D02*
X91600000Y-68000000D01*
X110000000Y-68000000D02*
X110000000Y-63000000D01*
X108400000Y-68000000D02*
X110000000Y-68000000D01*
X96400000Y-68000000D02*
X103600000Y-68000000D01*
X90000000Y-68000000D02*
X90000000Y-73000000D01*
X70000000Y-68000000D02*
X70000000Y-73000000D01*
X70000000Y-106000000D02*
X70000000Y-101000000D01*
X70000000Y-106000000D02*
X71600000Y-106000000D01*
X76400000Y-106000000D02*
X83600000Y-106000000D01*
X88400000Y-106000000D02*
X90000000Y-106000000D01*
X70000000Y-78000000D02*
X70000000Y-96000000D01*
X90000000Y-96200000D02*
X90000000Y-77800000D01*
X90000000Y-106000000D02*
X90000000Y-101000000D01*
X88400000Y-68000000D02*
X90000000Y-68000000D01*
X76400000Y-68000000D02*
X83600000Y-68000000D01*
X70000000Y-68000000D02*
X71600000Y-68000000D01*
X90000000Y-68000000D02*
X90000000Y-63000000D01*
X70000000Y-68000000D02*
X70000000Y-63000000D01*
X90000000Y-30000000D02*
X90000000Y-35000000D01*
X70000000Y-30000000D02*
X70000000Y-35000000D01*
X76400000Y-30000000D02*
X83600000Y-30000000D01*
X70000000Y-30000000D02*
X71600000Y-30000000D01*
X88400000Y-30000000D02*
X90000000Y-30000000D01*
X90000000Y-58200000D02*
X90000000Y-39800000D01*
X70000000Y-40000000D02*
X70000000Y-58000000D01*
M02*
