G04 #@! TF.FileFunction,Paste,Top*
%FSLAX46Y46*%
G04 Gerber Fmt 4.6, Leading zero omitted, Abs format (unit mm)*
G04 Created by KiCad (PCBNEW 4.0.4-stable) date 01/05/17 11:30:22*
%MOMM*%
%LPD*%
G01*
G04 APERTURE LIST*
%ADD10C,0.100000*%
%ADD11R,1.640000X0.740000*%
%ADD12R,1.190000X1.690000*%
%ADD13R,0.737560X0.539440*%
%ADD14R,0.539440X0.737560*%
%ADD15R,0.590000X1.000000*%
%ADD16R,0.850000X1.160000*%
%ADD17R,0.360000X0.490000*%
%ADD18R,0.940000X0.940000*%
%ADD19R,0.440000X0.200000*%
%ADD20R,0.410000X0.940000*%
%ADD21R,0.600000X0.360000*%
%ADD22R,1.000000X0.590000*%
%ADD23R,0.490000X0.360000*%
%ADD24R,0.200000X0.440000*%
%ADD25R,0.940000X0.410000*%
%ADD26R,0.360000X0.600000*%
G04 APERTURE END LIST*
D10*
D11*
X155000000Y-89350000D03*
X155000000Y-92650000D03*
D12*
X156775000Y-95800000D03*
X159525000Y-95800000D03*
D13*
X156900000Y-89100000D03*
X156900000Y-90679880D03*
D14*
X168200000Y-101400000D03*
X166620120Y-101400000D03*
D13*
X168600000Y-98070120D03*
X168600000Y-99650000D03*
D15*
X165600000Y-100000000D03*
X166550000Y-100000000D03*
X167500000Y-100000000D03*
X167500000Y-97800000D03*
X165600000Y-97800000D03*
X166550000Y-97800000D03*
D11*
X165000000Y-89350000D03*
X165000000Y-92650000D03*
D13*
X166000000Y-95989940D03*
X166000000Y-94410060D03*
X164750000Y-96000000D03*
X164750000Y-94420120D03*
X163200000Y-87020120D03*
X163200000Y-88600000D03*
X167200000Y-96000000D03*
X167200000Y-94420120D03*
D16*
X161385000Y-98200000D03*
X158115000Y-98200000D03*
D14*
X164600000Y-97800000D03*
X163020120Y-97800000D03*
D17*
X152790000Y-102135000D03*
D18*
X152880000Y-101360000D03*
D19*
X154265000Y-101730000D03*
D20*
X153780000Y-101360000D03*
D19*
X154265000Y-101090000D03*
X154265000Y-100410000D03*
D20*
X153780000Y-100140000D03*
D21*
X151330000Y-101730000D03*
X151330000Y-101080000D03*
X151330000Y-100430000D03*
X151330000Y-99780000D03*
D19*
X154265000Y-99770000D03*
D18*
X152880000Y-100140000D03*
D17*
X152790000Y-99365000D03*
D11*
X155000000Y-51350000D03*
X155000000Y-54650000D03*
D13*
X156900000Y-51100000D03*
X156900000Y-52679880D03*
X163200000Y-49020120D03*
X163200000Y-50600000D03*
D12*
X154875000Y-40656000D03*
X152125000Y-40656000D03*
D14*
X151460060Y-42350000D03*
X153039940Y-42350000D03*
X151460060Y-45950000D03*
X153039940Y-45950000D03*
X151460060Y-44750000D03*
X153039940Y-44750000D03*
D11*
X155000000Y-43350000D03*
X155000000Y-46650000D03*
D13*
X156900000Y-46320120D03*
X156900000Y-47900000D03*
D14*
X151460060Y-43550000D03*
X153039940Y-43550000D03*
D13*
X158750000Y-39750000D03*
X158750000Y-38170120D03*
D14*
X157250000Y-38200000D03*
X155670120Y-38200000D03*
X154289940Y-35322000D03*
X152710060Y-35322000D03*
D22*
X151950000Y-36850000D03*
X151950000Y-37800000D03*
X151950000Y-38750000D03*
X154150000Y-38750000D03*
X154150000Y-36850000D03*
D23*
X154921000Y-32592000D03*
D18*
X154146000Y-32502000D03*
D24*
X154516000Y-31117000D03*
D25*
X154146000Y-31602000D03*
D24*
X153876000Y-31117000D03*
X153196000Y-31117000D03*
D25*
X152926000Y-31602000D03*
D26*
X154516000Y-34052000D03*
X153866000Y-34052000D03*
X153216000Y-34052000D03*
X152566000Y-34052000D03*
D24*
X152556000Y-31117000D03*
D18*
X152926000Y-32502000D03*
D23*
X152151000Y-32592000D03*
D13*
X163200000Y-46020120D03*
X163200000Y-47600000D03*
D11*
X165000000Y-51350000D03*
X165000000Y-54650000D03*
X165000000Y-43350000D03*
X165000000Y-46650000D03*
D23*
X154921000Y-70592000D03*
D18*
X154146000Y-70502000D03*
D24*
X154516000Y-69117000D03*
D25*
X154146000Y-69602000D03*
D24*
X153876000Y-69117000D03*
X153196000Y-69117000D03*
D25*
X152926000Y-69602000D03*
D26*
X154516000Y-72052000D03*
X153866000Y-72052000D03*
X153216000Y-72052000D03*
X152566000Y-72052000D03*
D24*
X152556000Y-69117000D03*
D18*
X152926000Y-70502000D03*
D23*
X152151000Y-70592000D03*
D22*
X151950000Y-74850000D03*
X151950000Y-75800000D03*
X151950000Y-76750000D03*
X154150000Y-76750000D03*
X154150000Y-74850000D03*
D14*
X154289940Y-73322000D03*
X152710060Y-73322000D03*
X157250000Y-76200000D03*
X155670120Y-76200000D03*
D17*
X152790000Y-64135000D03*
D18*
X152880000Y-63360000D03*
D19*
X154265000Y-63730000D03*
D20*
X153780000Y-63360000D03*
D19*
X154265000Y-63090000D03*
X154265000Y-62410000D03*
D20*
X153780000Y-62140000D03*
D21*
X151330000Y-63730000D03*
X151330000Y-63080000D03*
X151330000Y-62430000D03*
X151330000Y-61780000D03*
D19*
X154265000Y-61770000D03*
D18*
X152880000Y-62140000D03*
D17*
X152790000Y-61365000D03*
D12*
X156775000Y-57800000D03*
X159525000Y-57800000D03*
D14*
X164600000Y-59800000D03*
X163020120Y-59800000D03*
D16*
X161385000Y-60200000D03*
X158115000Y-60200000D03*
D13*
X164750000Y-58000000D03*
X164750000Y-56420120D03*
X156900000Y-84320120D03*
X156900000Y-85900000D03*
D12*
X154875000Y-78656000D03*
X152125000Y-78656000D03*
D14*
X151460060Y-82750000D03*
X153039940Y-82750000D03*
D11*
X155000000Y-81350000D03*
X155000000Y-84650000D03*
D14*
X151460060Y-80350000D03*
X153039940Y-80350000D03*
X151460060Y-83950000D03*
X153039940Y-83950000D03*
X151460060Y-81550000D03*
X153039940Y-81550000D03*
D15*
X165600000Y-62000000D03*
X166550000Y-62000000D03*
X167500000Y-62000000D03*
X167500000Y-59800000D03*
X165600000Y-59800000D03*
X166550000Y-59800000D03*
D13*
X166000000Y-57989940D03*
X166000000Y-56410060D03*
D14*
X168200000Y-63400000D03*
X166620120Y-63400000D03*
D13*
X168600000Y-60070120D03*
X168600000Y-61650000D03*
X167200000Y-58000000D03*
X167200000Y-56420120D03*
X163200000Y-84020120D03*
X163200000Y-85600000D03*
D11*
X165000000Y-81350000D03*
X165000000Y-84650000D03*
D13*
X158750000Y-77750000D03*
X158750000Y-76170120D03*
D11*
X135000000Y-89350000D03*
X135000000Y-92650000D03*
D12*
X136775000Y-95800000D03*
X139525000Y-95800000D03*
D13*
X136900000Y-89100000D03*
X136900000Y-90679880D03*
D14*
X148200000Y-101400000D03*
X146620120Y-101400000D03*
D13*
X148600000Y-98070120D03*
X148600000Y-99650000D03*
D15*
X145600000Y-100000000D03*
X146550000Y-100000000D03*
X147500000Y-100000000D03*
X147500000Y-97800000D03*
X145600000Y-97800000D03*
X146550000Y-97800000D03*
D11*
X145000000Y-89350000D03*
X145000000Y-92650000D03*
D13*
X146000000Y-95989940D03*
X146000000Y-94410060D03*
X144750000Y-96000000D03*
X144750000Y-94420120D03*
X143200000Y-87020120D03*
X143200000Y-88600000D03*
X147200000Y-96000000D03*
X147200000Y-94420120D03*
D16*
X141385000Y-98200000D03*
X138115000Y-98200000D03*
D14*
X144600000Y-97800000D03*
X143020120Y-97800000D03*
D17*
X132790000Y-102135000D03*
D18*
X132880000Y-101360000D03*
D19*
X134265000Y-101730000D03*
D20*
X133780000Y-101360000D03*
D19*
X134265000Y-101090000D03*
X134265000Y-100410000D03*
D20*
X133780000Y-100140000D03*
D21*
X131330000Y-101730000D03*
X131330000Y-101080000D03*
X131330000Y-100430000D03*
X131330000Y-99780000D03*
D19*
X134265000Y-99770000D03*
D18*
X132880000Y-100140000D03*
D17*
X132790000Y-99365000D03*
D11*
X135000000Y-51350000D03*
X135000000Y-54650000D03*
D13*
X136900000Y-51100000D03*
X136900000Y-52679880D03*
X143200000Y-49020120D03*
X143200000Y-50600000D03*
D12*
X134875000Y-40656000D03*
X132125000Y-40656000D03*
D14*
X131460060Y-42350000D03*
X133039940Y-42350000D03*
X131460060Y-45950000D03*
X133039940Y-45950000D03*
X131460060Y-44750000D03*
X133039940Y-44750000D03*
D11*
X135000000Y-43350000D03*
X135000000Y-46650000D03*
D13*
X136900000Y-46320120D03*
X136900000Y-47900000D03*
D14*
X131460060Y-43550000D03*
X133039940Y-43550000D03*
D13*
X138750000Y-39750000D03*
X138750000Y-38170120D03*
D14*
X137250000Y-38200000D03*
X135670120Y-38200000D03*
X134289940Y-35322000D03*
X132710060Y-35322000D03*
D22*
X131950000Y-36850000D03*
X131950000Y-37800000D03*
X131950000Y-38750000D03*
X134150000Y-38750000D03*
X134150000Y-36850000D03*
D23*
X134921000Y-32592000D03*
D18*
X134146000Y-32502000D03*
D24*
X134516000Y-31117000D03*
D25*
X134146000Y-31602000D03*
D24*
X133876000Y-31117000D03*
X133196000Y-31117000D03*
D25*
X132926000Y-31602000D03*
D26*
X134516000Y-34052000D03*
X133866000Y-34052000D03*
X133216000Y-34052000D03*
X132566000Y-34052000D03*
D24*
X132556000Y-31117000D03*
D18*
X132926000Y-32502000D03*
D23*
X132151000Y-32592000D03*
D13*
X143200000Y-46020120D03*
X143200000Y-47600000D03*
D11*
X145000000Y-51350000D03*
X145000000Y-54650000D03*
X145000000Y-43350000D03*
X145000000Y-46650000D03*
D23*
X134921000Y-70592000D03*
D18*
X134146000Y-70502000D03*
D24*
X134516000Y-69117000D03*
D25*
X134146000Y-69602000D03*
D24*
X133876000Y-69117000D03*
X133196000Y-69117000D03*
D25*
X132926000Y-69602000D03*
D26*
X134516000Y-72052000D03*
X133866000Y-72052000D03*
X133216000Y-72052000D03*
X132566000Y-72052000D03*
D24*
X132556000Y-69117000D03*
D18*
X132926000Y-70502000D03*
D23*
X132151000Y-70592000D03*
D22*
X131950000Y-74850000D03*
X131950000Y-75800000D03*
X131950000Y-76750000D03*
X134150000Y-76750000D03*
X134150000Y-74850000D03*
D14*
X134289940Y-73322000D03*
X132710060Y-73322000D03*
X137250000Y-76200000D03*
X135670120Y-76200000D03*
D17*
X132790000Y-64135000D03*
D18*
X132880000Y-63360000D03*
D19*
X134265000Y-63730000D03*
D20*
X133780000Y-63360000D03*
D19*
X134265000Y-63090000D03*
X134265000Y-62410000D03*
D20*
X133780000Y-62140000D03*
D21*
X131330000Y-63730000D03*
X131330000Y-63080000D03*
X131330000Y-62430000D03*
X131330000Y-61780000D03*
D19*
X134265000Y-61770000D03*
D18*
X132880000Y-62140000D03*
D17*
X132790000Y-61365000D03*
D12*
X136775000Y-57800000D03*
X139525000Y-57800000D03*
D14*
X144600000Y-59800000D03*
X143020120Y-59800000D03*
D16*
X141385000Y-60200000D03*
X138115000Y-60200000D03*
D13*
X144750000Y-58000000D03*
X144750000Y-56420120D03*
X136900000Y-84320120D03*
X136900000Y-85900000D03*
D12*
X134875000Y-78656000D03*
X132125000Y-78656000D03*
D14*
X131460060Y-82750000D03*
X133039940Y-82750000D03*
D11*
X135000000Y-81350000D03*
X135000000Y-84650000D03*
D14*
X131460060Y-80350000D03*
X133039940Y-80350000D03*
X131460060Y-83950000D03*
X133039940Y-83950000D03*
X131460060Y-81550000D03*
X133039940Y-81550000D03*
D15*
X145600000Y-62000000D03*
X146550000Y-62000000D03*
X147500000Y-62000000D03*
X147500000Y-59800000D03*
X145600000Y-59800000D03*
X146550000Y-59800000D03*
D13*
X146000000Y-57989940D03*
X146000000Y-56410060D03*
D14*
X148200000Y-63400000D03*
X146620120Y-63400000D03*
D13*
X148600000Y-60070120D03*
X148600000Y-61650000D03*
X147200000Y-58000000D03*
X147200000Y-56420120D03*
X143200000Y-84020120D03*
X143200000Y-85600000D03*
D11*
X145000000Y-81350000D03*
X145000000Y-84650000D03*
D13*
X138750000Y-77750000D03*
X138750000Y-76170120D03*
D11*
X115000000Y-89350000D03*
X115000000Y-92650000D03*
D12*
X116775000Y-95800000D03*
X119525000Y-95800000D03*
D13*
X116900000Y-89100000D03*
X116900000Y-90679880D03*
D14*
X128200000Y-101400000D03*
X126620120Y-101400000D03*
D13*
X128600000Y-98070120D03*
X128600000Y-99650000D03*
D15*
X125600000Y-100000000D03*
X126550000Y-100000000D03*
X127500000Y-100000000D03*
X127500000Y-97800000D03*
X125600000Y-97800000D03*
X126550000Y-97800000D03*
D11*
X125000000Y-89350000D03*
X125000000Y-92650000D03*
D13*
X126000000Y-95989940D03*
X126000000Y-94410060D03*
X124750000Y-96000000D03*
X124750000Y-94420120D03*
X123200000Y-87020120D03*
X123200000Y-88600000D03*
X127200000Y-96000000D03*
X127200000Y-94420120D03*
D16*
X121385000Y-98200000D03*
X118115000Y-98200000D03*
D14*
X124600000Y-97800000D03*
X123020120Y-97800000D03*
D17*
X112790000Y-102135000D03*
D18*
X112880000Y-101360000D03*
D19*
X114265000Y-101730000D03*
D20*
X113780000Y-101360000D03*
D19*
X114265000Y-101090000D03*
X114265000Y-100410000D03*
D20*
X113780000Y-100140000D03*
D21*
X111330000Y-101730000D03*
X111330000Y-101080000D03*
X111330000Y-100430000D03*
X111330000Y-99780000D03*
D19*
X114265000Y-99770000D03*
D18*
X112880000Y-100140000D03*
D17*
X112790000Y-99365000D03*
D11*
X115000000Y-51350000D03*
X115000000Y-54650000D03*
D13*
X116900000Y-51100000D03*
X116900000Y-52679880D03*
X123200000Y-49020120D03*
X123200000Y-50600000D03*
D12*
X114875000Y-40656000D03*
X112125000Y-40656000D03*
D14*
X111460060Y-42350000D03*
X113039940Y-42350000D03*
X111460060Y-45950000D03*
X113039940Y-45950000D03*
X111460060Y-44750000D03*
X113039940Y-44750000D03*
D11*
X115000000Y-43350000D03*
X115000000Y-46650000D03*
D13*
X116900000Y-46320120D03*
X116900000Y-47900000D03*
D14*
X111460060Y-43550000D03*
X113039940Y-43550000D03*
D13*
X118750000Y-39750000D03*
X118750000Y-38170120D03*
D14*
X117250000Y-38200000D03*
X115670120Y-38200000D03*
X114289940Y-35322000D03*
X112710060Y-35322000D03*
D22*
X111950000Y-36850000D03*
X111950000Y-37800000D03*
X111950000Y-38750000D03*
X114150000Y-38750000D03*
X114150000Y-36850000D03*
D23*
X114921000Y-32592000D03*
D18*
X114146000Y-32502000D03*
D24*
X114516000Y-31117000D03*
D25*
X114146000Y-31602000D03*
D24*
X113876000Y-31117000D03*
X113196000Y-31117000D03*
D25*
X112926000Y-31602000D03*
D26*
X114516000Y-34052000D03*
X113866000Y-34052000D03*
X113216000Y-34052000D03*
X112566000Y-34052000D03*
D24*
X112556000Y-31117000D03*
D18*
X112926000Y-32502000D03*
D23*
X112151000Y-32592000D03*
D13*
X123200000Y-46020120D03*
X123200000Y-47600000D03*
D11*
X125000000Y-51350000D03*
X125000000Y-54650000D03*
X125000000Y-43350000D03*
X125000000Y-46650000D03*
D23*
X114921000Y-70592000D03*
D18*
X114146000Y-70502000D03*
D24*
X114516000Y-69117000D03*
D25*
X114146000Y-69602000D03*
D24*
X113876000Y-69117000D03*
X113196000Y-69117000D03*
D25*
X112926000Y-69602000D03*
D26*
X114516000Y-72052000D03*
X113866000Y-72052000D03*
X113216000Y-72052000D03*
X112566000Y-72052000D03*
D24*
X112556000Y-69117000D03*
D18*
X112926000Y-70502000D03*
D23*
X112151000Y-70592000D03*
D22*
X111950000Y-74850000D03*
X111950000Y-75800000D03*
X111950000Y-76750000D03*
X114150000Y-76750000D03*
X114150000Y-74850000D03*
D14*
X114289940Y-73322000D03*
X112710060Y-73322000D03*
X117250000Y-76200000D03*
X115670120Y-76200000D03*
D17*
X112790000Y-64135000D03*
D18*
X112880000Y-63360000D03*
D19*
X114265000Y-63730000D03*
D20*
X113780000Y-63360000D03*
D19*
X114265000Y-63090000D03*
X114265000Y-62410000D03*
D20*
X113780000Y-62140000D03*
D21*
X111330000Y-63730000D03*
X111330000Y-63080000D03*
X111330000Y-62430000D03*
X111330000Y-61780000D03*
D19*
X114265000Y-61770000D03*
D18*
X112880000Y-62140000D03*
D17*
X112790000Y-61365000D03*
D12*
X116775000Y-57800000D03*
X119525000Y-57800000D03*
D14*
X124600000Y-59800000D03*
X123020120Y-59800000D03*
D16*
X121385000Y-60200000D03*
X118115000Y-60200000D03*
D13*
X124750000Y-58000000D03*
X124750000Y-56420120D03*
X116900000Y-84320120D03*
X116900000Y-85900000D03*
D12*
X114875000Y-78656000D03*
X112125000Y-78656000D03*
D14*
X111460060Y-82750000D03*
X113039940Y-82750000D03*
D11*
X115000000Y-81350000D03*
X115000000Y-84650000D03*
D14*
X111460060Y-80350000D03*
X113039940Y-80350000D03*
X111460060Y-83950000D03*
X113039940Y-83950000D03*
X111460060Y-81550000D03*
X113039940Y-81550000D03*
D15*
X125600000Y-62000000D03*
X126550000Y-62000000D03*
X127500000Y-62000000D03*
X127500000Y-59800000D03*
X125600000Y-59800000D03*
X126550000Y-59800000D03*
D13*
X126000000Y-57989940D03*
X126000000Y-56410060D03*
D14*
X128200000Y-63400000D03*
X126620120Y-63400000D03*
D13*
X128600000Y-60070120D03*
X128600000Y-61650000D03*
X127200000Y-58000000D03*
X127200000Y-56420120D03*
X123200000Y-84020120D03*
X123200000Y-85600000D03*
D11*
X125000000Y-81350000D03*
X125000000Y-84650000D03*
D13*
X118750000Y-77750000D03*
X118750000Y-76170120D03*
D23*
X94921000Y-70592000D03*
D18*
X94146000Y-70502000D03*
D24*
X94516000Y-69117000D03*
D25*
X94146000Y-69602000D03*
D24*
X93876000Y-69117000D03*
X93196000Y-69117000D03*
D25*
X92926000Y-69602000D03*
D26*
X94516000Y-72052000D03*
X93866000Y-72052000D03*
X93216000Y-72052000D03*
X92566000Y-72052000D03*
D24*
X92556000Y-69117000D03*
D18*
X92926000Y-70502000D03*
D23*
X92151000Y-70592000D03*
D22*
X91950000Y-74850000D03*
X91950000Y-75800000D03*
X91950000Y-76750000D03*
X94150000Y-76750000D03*
X94150000Y-74850000D03*
D14*
X94289940Y-73322000D03*
X92710060Y-73322000D03*
X97250000Y-76200000D03*
X95670120Y-76200000D03*
D13*
X103200000Y-84020120D03*
X103200000Y-85600000D03*
X96900000Y-84320120D03*
X96900000Y-85900000D03*
X98750000Y-77750000D03*
X98750000Y-76170120D03*
D12*
X94875000Y-78656000D03*
X92125000Y-78656000D03*
D14*
X91460060Y-82750000D03*
X93039940Y-82750000D03*
X91460060Y-83950000D03*
X93039940Y-83950000D03*
X91460060Y-80350000D03*
X93039940Y-80350000D03*
D11*
X95000000Y-81350000D03*
X95000000Y-84650000D03*
D14*
X91460060Y-81550000D03*
X93039940Y-81550000D03*
D11*
X105000000Y-81350000D03*
X105000000Y-84650000D03*
D15*
X105600000Y-62000000D03*
X106550000Y-62000000D03*
X107500000Y-62000000D03*
X107500000Y-59800000D03*
X105600000Y-59800000D03*
X106550000Y-59800000D03*
D14*
X108200000Y-63400000D03*
X106620120Y-63400000D03*
D13*
X108600000Y-60070120D03*
X108600000Y-61650000D03*
D17*
X92790000Y-64135000D03*
D18*
X92880000Y-63360000D03*
D19*
X94265000Y-63730000D03*
D20*
X93780000Y-63360000D03*
D19*
X94265000Y-63090000D03*
X94265000Y-62410000D03*
D20*
X93780000Y-62140000D03*
D21*
X91330000Y-63730000D03*
X91330000Y-63080000D03*
X91330000Y-62430000D03*
X91330000Y-61780000D03*
D19*
X94265000Y-61770000D03*
D18*
X92880000Y-62140000D03*
D17*
X92790000Y-61365000D03*
D14*
X104600000Y-59800000D03*
X103020120Y-59800000D03*
D16*
X101385000Y-60200000D03*
X98115000Y-60200000D03*
D14*
X97250000Y-38200000D03*
X95670120Y-38200000D03*
D13*
X98750000Y-39750000D03*
X98750000Y-38170120D03*
D22*
X91950000Y-36850000D03*
X91950000Y-37800000D03*
X91950000Y-38750000D03*
X94150000Y-38750000D03*
X94150000Y-36850000D03*
D23*
X94921000Y-32592000D03*
D18*
X94146000Y-32502000D03*
D24*
X94516000Y-31117000D03*
D25*
X94146000Y-31602000D03*
D24*
X93876000Y-31117000D03*
X93196000Y-31117000D03*
D25*
X92926000Y-31602000D03*
D26*
X94516000Y-34052000D03*
X93866000Y-34052000D03*
X93216000Y-34052000D03*
X92566000Y-34052000D03*
D24*
X92556000Y-31117000D03*
D18*
X92926000Y-32502000D03*
D23*
X92151000Y-32592000D03*
D14*
X94289940Y-35322000D03*
X92710060Y-35322000D03*
D12*
X94875000Y-40656000D03*
X92125000Y-40656000D03*
D14*
X91460060Y-42350000D03*
X93039940Y-42350000D03*
X91460060Y-43550000D03*
X93039940Y-43550000D03*
X91460060Y-44750000D03*
X93039940Y-44750000D03*
X91460060Y-45950000D03*
X93039940Y-45950000D03*
D13*
X107200000Y-58000000D03*
X107200000Y-56420120D03*
X104750000Y-58000000D03*
X104750000Y-56420120D03*
D11*
X105000000Y-51350000D03*
X105000000Y-54650000D03*
D13*
X106000000Y-57989940D03*
X106000000Y-56410060D03*
D11*
X95000000Y-51350000D03*
X95000000Y-54650000D03*
D13*
X96900000Y-51100000D03*
X96900000Y-52679880D03*
D12*
X96775000Y-57800000D03*
X99525000Y-57800000D03*
D13*
X103200000Y-46020120D03*
X103200000Y-47600000D03*
X103200000Y-49020120D03*
X103200000Y-50600000D03*
D11*
X105000000Y-43350000D03*
X105000000Y-46650000D03*
X95000000Y-43350000D03*
X95000000Y-46650000D03*
D13*
X96900000Y-46320120D03*
X96900000Y-47900000D03*
X103200000Y-87020120D03*
X103200000Y-88600000D03*
X106000000Y-95989940D03*
X106000000Y-94410060D03*
X107200000Y-96000000D03*
X107200000Y-94420120D03*
X104750000Y-96000000D03*
X104750000Y-94420120D03*
D11*
X105000000Y-89350000D03*
X105000000Y-92650000D03*
D14*
X108200000Y-101400000D03*
X106620120Y-101400000D03*
D15*
X105600000Y-100000000D03*
X106550000Y-100000000D03*
X107500000Y-100000000D03*
X107500000Y-97800000D03*
X105600000Y-97800000D03*
X106550000Y-97800000D03*
D13*
X108600000Y-98070120D03*
X108600000Y-99650000D03*
D17*
X92790000Y-102135000D03*
D18*
X92880000Y-101360000D03*
D19*
X94265000Y-101730000D03*
D20*
X93780000Y-101360000D03*
D19*
X94265000Y-101090000D03*
X94265000Y-100410000D03*
D20*
X93780000Y-100140000D03*
D21*
X91330000Y-101730000D03*
X91330000Y-101080000D03*
X91330000Y-100430000D03*
X91330000Y-99780000D03*
D19*
X94265000Y-99770000D03*
D18*
X92880000Y-100140000D03*
D17*
X92790000Y-99365000D03*
D14*
X104600000Y-97800000D03*
X103020120Y-97800000D03*
D16*
X101385000Y-98200000D03*
X98115000Y-98200000D03*
D12*
X96775000Y-95800000D03*
X99525000Y-95800000D03*
D11*
X95000000Y-89350000D03*
X95000000Y-92650000D03*
D13*
X96900000Y-89100000D03*
X96900000Y-90679880D03*
X83200000Y-87020120D03*
X83200000Y-88600000D03*
X83200000Y-84020120D03*
X83200000Y-85600000D03*
D11*
X85000000Y-81350000D03*
X85000000Y-84650000D03*
D12*
X74875000Y-78656000D03*
X72125000Y-78656000D03*
D14*
X71460060Y-81550000D03*
X73039940Y-81550000D03*
X71460060Y-80350000D03*
X73039940Y-80350000D03*
X71460060Y-82750000D03*
X73039940Y-82750000D03*
X71460060Y-83950000D03*
X73039940Y-83950000D03*
D13*
X76900000Y-84320120D03*
X76900000Y-85900000D03*
D11*
X75000000Y-81350000D03*
X75000000Y-84650000D03*
D13*
X78750000Y-77750000D03*
X78750000Y-76170120D03*
D14*
X77250000Y-76200000D03*
X75670120Y-76200000D03*
D22*
X71950000Y-74850000D03*
X71950000Y-75800000D03*
X71950000Y-76750000D03*
X74150000Y-76750000D03*
X74150000Y-74850000D03*
D14*
X74289940Y-73322000D03*
X72710060Y-73322000D03*
D23*
X74921000Y-70592000D03*
D18*
X74146000Y-70502000D03*
D24*
X74516000Y-69117000D03*
D25*
X74146000Y-69602000D03*
D24*
X73876000Y-69117000D03*
X73196000Y-69117000D03*
D25*
X72926000Y-69602000D03*
D26*
X74516000Y-72052000D03*
X73866000Y-72052000D03*
X73216000Y-72052000D03*
X72566000Y-72052000D03*
D24*
X72556000Y-69117000D03*
D18*
X72926000Y-70502000D03*
D23*
X72151000Y-70592000D03*
D12*
X76775000Y-95800000D03*
X79525000Y-95800000D03*
D13*
X76900000Y-89100000D03*
X76900000Y-90679880D03*
D11*
X75000000Y-89350000D03*
X75000000Y-92650000D03*
D15*
X85600000Y-100000000D03*
X86550000Y-100000000D03*
X87500000Y-100000000D03*
X87500000Y-97800000D03*
X85600000Y-97800000D03*
X86550000Y-97800000D03*
D13*
X88600000Y-98070120D03*
X88600000Y-99650000D03*
D14*
X88200000Y-101400000D03*
X86620120Y-101400000D03*
D13*
X86000000Y-95989940D03*
X86000000Y-94410060D03*
X84750000Y-96000000D03*
X84750000Y-94420120D03*
D11*
X85000000Y-89350000D03*
X85000000Y-92650000D03*
D13*
X87200000Y-96000000D03*
X87200000Y-94420120D03*
D16*
X81385000Y-98200000D03*
X78115000Y-98200000D03*
D17*
X72790000Y-102135000D03*
D18*
X72880000Y-101360000D03*
D19*
X74265000Y-101730000D03*
D20*
X73780000Y-101360000D03*
D19*
X74265000Y-101090000D03*
X74265000Y-100410000D03*
D20*
X73780000Y-100140000D03*
D21*
X71330000Y-101730000D03*
X71330000Y-101080000D03*
X71330000Y-100430000D03*
X71330000Y-99780000D03*
D19*
X74265000Y-99770000D03*
D18*
X72880000Y-100140000D03*
D17*
X72790000Y-99365000D03*
D14*
X84600000Y-97800000D03*
X83020120Y-97800000D03*
D22*
X71950000Y-36850000D03*
X71950000Y-37800000D03*
X71950000Y-38750000D03*
X74150000Y-38750000D03*
X74150000Y-36850000D03*
D14*
X77250000Y-38200000D03*
X75670120Y-38200000D03*
X71460060Y-43550000D03*
X73039940Y-43550000D03*
D12*
X76775000Y-57800000D03*
X79525000Y-57800000D03*
X74875000Y-40656000D03*
X72125000Y-40656000D03*
D13*
X88600000Y-60070120D03*
X88600000Y-61650000D03*
X86000000Y-57989940D03*
X86000000Y-56410060D03*
X87200000Y-58000000D03*
X87200000Y-56420120D03*
X84750000Y-58000000D03*
X84750000Y-56420120D03*
D11*
X75000000Y-43350000D03*
X75000000Y-46650000D03*
X75000000Y-51350000D03*
X75000000Y-54650000D03*
X85000000Y-43350000D03*
X85000000Y-46650000D03*
X85000000Y-51350000D03*
X85000000Y-54650000D03*
D16*
X81385000Y-60200000D03*
X78115000Y-60200000D03*
D23*
X74921000Y-32592000D03*
D18*
X74146000Y-32502000D03*
D24*
X74516000Y-31117000D03*
D25*
X74146000Y-31602000D03*
D24*
X73876000Y-31117000D03*
X73196000Y-31117000D03*
D25*
X72926000Y-31602000D03*
D26*
X74516000Y-34052000D03*
X73866000Y-34052000D03*
X73216000Y-34052000D03*
X72566000Y-34052000D03*
D24*
X72556000Y-31117000D03*
D18*
X72926000Y-32502000D03*
D23*
X72151000Y-32592000D03*
D17*
X72790000Y-64135000D03*
D18*
X72880000Y-63360000D03*
D19*
X74265000Y-63730000D03*
D20*
X73780000Y-63360000D03*
D19*
X74265000Y-63090000D03*
X74265000Y-62410000D03*
D20*
X73780000Y-62140000D03*
D21*
X71330000Y-63730000D03*
X71330000Y-63080000D03*
X71330000Y-62430000D03*
X71330000Y-61780000D03*
D19*
X74265000Y-61770000D03*
D18*
X72880000Y-62140000D03*
D17*
X72790000Y-61365000D03*
D14*
X74289940Y-35322000D03*
X72710060Y-35322000D03*
D13*
X78750000Y-39750000D03*
X78750000Y-38170120D03*
D14*
X71460060Y-44750000D03*
X73039940Y-44750000D03*
X71460060Y-45950000D03*
X73039940Y-45950000D03*
X71460060Y-42350000D03*
X73039940Y-42350000D03*
X84600000Y-59800000D03*
X83020120Y-59800000D03*
X88200000Y-63400000D03*
X86620120Y-63400000D03*
D15*
X85600000Y-62000000D03*
X86550000Y-62000000D03*
X87500000Y-62000000D03*
X87500000Y-59800000D03*
X85600000Y-59800000D03*
X86550000Y-59800000D03*
D13*
X76900000Y-46320120D03*
X76900000Y-47900000D03*
X76900000Y-51100000D03*
X76900000Y-52679880D03*
X83200000Y-46020120D03*
X83200000Y-47600000D03*
X83200000Y-49020120D03*
X83200000Y-50600000D03*
M02*
