M48
;DRILL file {KiCad 4.0.4-stable} date 01/10/17 11:07:21
;FORMAT={-:-/ absolute / metric / decimal}
FMAT,2
METRIC,TZ
T1C0.500
T2C2.300
%
G90
G05
M71
T1
X70.Y-35.8
X70.Y-36.6
X70.Y-37.4
X70.Y-38.2
X70.Y-39.
X70.Y-59.
X70.Y-59.8
X70.Y-60.6
X70.Y-61.4
X70.Y-62.2
X70.Y-73.8
X70.Y-74.6
X70.Y-75.4
X70.Y-76.2
X70.Y-77.
X70.Y-97.
X70.Y-97.8
X70.Y-98.6
X70.Y-99.4
X70.Y-100.2
X72.4Y-30.
X72.4Y-68.
X72.4Y-106.
X73.2Y-30.
X73.2Y-68.
X73.2Y-106.
X74.Y-30.
X74.Y-68.
X74.Y-106.
X74.8Y-30.
X74.8Y-68.
X74.8Y-106.
X75.6Y-30.
X75.6Y-68.
X75.6Y-106.
X84.4Y-30.
X84.4Y-68.
X84.4Y-106.
X85.2Y-30.
X85.2Y-68.
X85.2Y-106.
X86.Y-30.
X86.Y-68.
X86.Y-106.
X86.8Y-30.
X86.8Y-68.
X86.8Y-106.
X87.6Y-30.
X87.6Y-68.
X87.6Y-106.
X90.Y-35.8
X90.Y-36.6
X90.Y-37.4
X90.Y-38.2
X90.Y-39.
X90.Y-59.
X90.Y-59.8
X90.Y-60.6
X90.Y-61.4
X90.Y-62.2
X90.Y-73.8
X90.Y-74.6
X90.Y-75.4
X90.Y-76.2
X90.Y-77.
X90.Y-97.
X90.Y-97.8
X90.Y-98.6
X90.Y-99.4
X90.Y-100.2
X92.4Y-30.
X92.4Y-68.
X92.4Y-106.
X93.2Y-30.
X93.2Y-68.
X93.2Y-106.
X94.Y-30.
X94.Y-68.
X94.Y-106.
X94.8Y-30.
X94.8Y-68.
X94.8Y-106.
X95.6Y-30.
X95.6Y-68.
X95.6Y-106.
X104.4Y-30.
X104.4Y-68.
X104.4Y-106.
X105.2Y-30.
X105.2Y-68.
X105.2Y-106.
X106.Y-30.
X106.Y-68.
X106.Y-106.
X106.8Y-30.
X106.8Y-68.
X106.8Y-106.
X107.6Y-30.
X107.6Y-68.
X107.6Y-106.
X110.Y-35.8
X110.Y-36.6
X110.Y-37.4
X110.Y-38.2
X110.Y-39.
X110.Y-59.
X110.Y-59.8
X110.Y-60.6
X110.Y-61.4
X110.Y-62.2
X110.Y-73.8
X110.Y-74.6
X110.Y-75.4
X110.Y-76.2
X110.Y-77.
X110.Y-97.
X110.Y-97.8
X110.Y-98.6
X110.Y-99.4
X110.Y-100.2
X112.4Y-30.
X112.4Y-68.
X112.4Y-106.
X113.2Y-30.
X113.2Y-68.
X113.2Y-106.
X114.Y-30.
X114.Y-68.
X114.Y-106.
X114.8Y-30.
X114.8Y-68.
X114.8Y-106.
X115.6Y-30.
X115.6Y-68.
X115.6Y-106.
X124.4Y-30.
X124.4Y-68.
X124.4Y-106.
X125.2Y-30.
X125.2Y-68.
X125.2Y-106.
X126.Y-30.
X126.Y-68.
X126.Y-106.
X126.8Y-30.
X126.8Y-68.
X126.8Y-106.
X127.6Y-30.
X127.6Y-68.
X127.6Y-106.
X130.Y-35.8
X130.Y-36.6
X130.Y-37.4
X130.Y-38.2
X130.Y-39.
X130.Y-59.
X130.Y-59.8
X130.Y-60.6
X130.Y-61.4
X130.Y-62.2
X130.Y-73.8
X130.Y-74.6
X130.Y-75.4
X130.Y-76.2
X130.Y-77.
X130.Y-97.
X130.Y-97.8
X130.Y-98.6
X130.Y-99.4
X130.Y-100.2
X132.4Y-30.
X132.4Y-68.
X132.4Y-106.
X133.2Y-30.
X133.2Y-68.
X133.2Y-106.
X134.Y-30.
X134.Y-68.
X134.Y-106.
X134.8Y-30.
X134.8Y-68.
X134.8Y-106.
X135.6Y-30.
X135.6Y-68.
X135.6Y-106.
X144.4Y-30.
X144.4Y-68.
X144.4Y-106.
X145.2Y-30.
X145.2Y-68.
X145.2Y-106.
X146.Y-30.
X146.Y-68.
X146.Y-106.
X146.8Y-30.
X146.8Y-68.
X146.8Y-106.
X147.6Y-30.
X147.6Y-68.
X147.6Y-106.
X150.Y-35.8
X150.Y-36.6
X150.Y-37.4
X150.Y-38.2
X150.Y-39.
X150.Y-59.
X150.Y-59.8
X150.Y-60.6
X150.Y-61.4
X150.Y-62.2
X150.Y-73.8
X150.Y-74.6
X150.Y-75.4
X150.Y-76.2
X150.Y-77.
X150.Y-97.
X150.Y-97.8
X150.Y-98.6
X150.Y-99.4
X150.Y-100.2
X152.4Y-30.
X152.4Y-68.
X152.4Y-106.
X153.2Y-30.
X153.2Y-68.
X153.2Y-106.
X154.Y-30.
X154.Y-68.
X154.Y-106.
X154.8Y-30.
X154.8Y-68.
X154.8Y-106.
X155.6Y-30.
X155.6Y-68.
X155.6Y-106.
X164.4Y-30.
X164.4Y-68.
X164.4Y-106.
X165.2Y-30.
X165.2Y-68.
X165.2Y-106.
X166.Y-30.
X166.Y-68.
X166.Y-106.
X166.8Y-30.
X166.8Y-68.
X166.8Y-106.
X167.6Y-30.
X167.6Y-68.
X167.6Y-106.
X170.Y-35.8
X170.Y-36.6
X170.Y-37.4
X170.Y-38.2
X170.Y-39.
X170.Y-59.
X170.Y-59.8
X170.Y-60.6
X170.Y-61.4
X170.Y-62.2
X170.Y-73.8
X170.Y-74.6
X170.Y-75.4
X170.Y-76.2
X170.Y-77.
X170.Y-97.
X170.Y-97.8
X170.Y-98.6
X170.Y-99.4
X170.Y-100.2
T2
X75.Y-45.
X75.Y-53.
X75.Y-83.
X75.Y-91.
X85.Y-45.
X85.Y-53.
X85.Y-83.
X85.Y-91.
X95.Y-45.
X95.Y-53.
X95.Y-83.
X95.Y-91.
X105.Y-45.
X105.Y-53.
X105.Y-83.
X105.Y-91.
X115.Y-45.
X115.Y-53.
X115.Y-83.
X115.Y-91.
X125.Y-45.
X125.Y-53.
X125.Y-83.
X125.Y-91.
X135.Y-45.
X135.Y-53.
X135.Y-83.
X135.Y-91.
X145.Y-45.
X145.Y-53.
X145.Y-83.
X145.Y-91.
X155.Y-45.
X155.Y-53.
X155.Y-83.
X155.Y-91.
X165.Y-45.
X165.Y-53.
X165.Y-83.
X165.Y-91.
T0
M30
